<?xml version="1.0" standalone="no"?>
<!DOCTYPE svg PUBLIC "-//W3C//DTD SVG 20010904//EN"
 "http://www.w3.org/TR/2001/REC-SVG-20010904/DTD/svg10.dtd">
<svg version="1.0" xmlns="http://www.w3.org/2000/svg"
 width="533.000000pt" height="533.000000pt" viewBox="0 0 533.000000 533.000000"
 preserveAspectRatio="xMidYMid meet">

<g transform="translate(0.000000,533.000000) scale(0.100000,-0.100000)"
fill="#000000" stroke="none">
<path d="M2423 4200 c-284 -17 -402 -61 -566 -207 -78 -70 -126 -94 -198 -100
-67 -7 -115 7 -245 68 -98 46 -134 54 -198 45 -52 -8 -72 -32 -85 -103 -18
-92 39 -225 132 -308 55 -50 77 -87 77 -131 0 -17 7 -52 16 -78 15 -42 22 -50
73 -74 48 -23 58 -33 69 -67 20 -57 9 -216 -22 -343 -15 -60 -26 -132 -26
-171 0 -125 55 -292 137 -414 l48 -72 -340 -1 c-272 0 -357 -4 -424 -17 -94
-18 -119 -33 -99 -60 12 -16 18 -16 93 0 67 14 140 17 452 18 332 0 374 -2
389 -16 15 -16 7 -17 -112 -23 -243 -12 -404 -31 -511 -62 -15 -4 -23 -14 -23
-29 0 -28 16 -35 49 -23 45 16 208 37 371 48 243 15 300 13 329 -9 l25 -19
-90 -7 c-437 -32 -747 -83 -793 -130 -14 -13 -14 -17 1 -31 14 -14 21 -14 84
6 129 40 452 81 744 96 116 6 137 5 148 -9 16 -19 6 -23 -93 -32 -100 -10
-279 -43 -356 -66 -70 -20 -88 -38 -63 -64 14 -13 19 -13 51 0 50 21 202 51
362 71 153 19 151 20 151 -61 1 -178 96 -334 227 -370 43 -13 66 -26 89 -53
l31 -36 -52 -66 c-85 -106 -104 -160 -56 -160 14 0 27 13 41 39 11 22 44 65
72 96 l53 56 40 -14 c44 -16 44 -15 20 -106 -18 -66 -13 -86 21 -79 12 2 21
19 29 53 17 71 33 107 45 100 10 -6 224 -9 251 -3 9 2 20 -21 35 -72 15 -52
27 -76 39 -78 33 -7 37 13 20 79 -24 91 -24 90 20 106 l40 14 53 -56 c28 -31
61 -74 72 -96 14 -26 27 -39 41 -39 48 0 24 66 -59 167 l-49 59 31 36 c23 27
46 40 89 53 136 38 226 193 227 388 l0 58 58 -6 c213 -23 372 -52 450 -81 45
-17 72 -8 72 22 0 29 -177 75 -375 99 -77 9 -151 19 -164 21 l-24 5 23 16 c21
15 42 16 211 5 314 -21 560 -54 682 -92 34 -11 69 -20 78 -20 23 0 31 26 14
44 -41 41 -329 91 -660 116 -82 6 -165 13 -183 16 l-33 5 24 19 c24 19 35 19
243 10 228 -10 337 -21 426 -45 45 -11 55 -12 67 0 24 24 4 42 -66 59 -111 26
-198 36 -395 43 -104 3 -188 9 -188 13 0 4 7 13 15 20 22 18 690 19 790 1 142
-25 142 -25 149 -6 3 10 2 23 -4 30 -31 38 -249 58 -588 53 -149 -1 -272 -1
-272 1 0 3 18 32 39 65 85 131 129 254 138 391 4 66 0 99 -23 195 -23 92 -28
138 -29 232 0 130 13 163 71 181 54 17 73 45 91 131 16 79 19 83 85 151 86 88
131 173 136 259 9 161 -91 197 -294 103 -124 -56 -180 -71 -244 -64 -65 8
-122 39 -198 106 -121 110 -230 160 -403 185 -129 18 -470 27 -646 16z m526
-61 c231 -18 336 -57 466 -170 83 -73 127 -102 179 -119 45 -14 146 -15 196
-1 33 10 34 9 15 -6 -33 -26 -157 -80 -200 -87 -54 -9 -181 9 -252 34 -86 31
-104 34 -113 20 -5 -7 -6 -19 -3 -26 6 -15 83 -49 158 -68 66 -18 177 -89 230
-147 42 -47 85 -132 85 -169 0 -35 14 -53 36 -48 16 3 19 12 18 53 -2 71 -38
139 -114 218 -65 66 -66 68 -41 73 94 21 209 78 361 178 52 35 110 67 127 71
29 6 34 4 43 -20 32 -83 -5 -178 -114 -294 -71 -77 -75 -83 -92 -158 -19 -90
-25 -99 -64 -108 -42 -9 -85 -64 -100 -126 -17 -71 -7 -207 26 -339 53 -215
10 -406 -134 -597 -51 -66 -66 -73 -164 -73 -62 0 -78 -7 -78 -36 0 -21 4 -23
62 -26 l63 -3 -70 -52 c-39 -29 -80 -53 -92 -53 -19 0 -21 4 -16 43 6 43 23
88 45 119 10 15 10 21 -4 35 -17 16 -19 16 -43 -7 -25 -23 -51 -94 -57 -155
-2 -22 -9 -31 -28 -35 -34 -8 -36 -53 -2 -58 27 -4 29 -28 2 -37 -24 -8 -26
-40 -3 -53 36 -20 8 -211 -43 -298 -55 -93 -121 -118 -296 -112 -96 4 -119 8
-151 27 -44 27 -87 95 -87 138 0 26 8 36 49 63 65 41 76 56 76 99 0 32 6 40
62 81 82 60 101 101 67 148 -8 12 -24 22 -35 22 -23 0 -36 -27 -20 -43 21 -21
11 -36 -50 -78 -66 -47 -93 -86 -84 -122 5 -20 -2 -29 -47 -59 l-53 -35 -52
35 c-46 30 -51 37 -47 62 8 40 -8 63 -81 115 -36 26 -65 51 -65 56 0 5 6 18
12 29 10 16 10 23 -4 36 -15 15 -18 15 -42 -9 -49 -49 -32 -91 65 -159 52 -36
60 -46 56 -67 -8 -41 9 -68 70 -108 52 -35 58 -42 54 -68 -5 -43 -25 -78 -66
-113 -48 -42 -69 -47 -215 -47 -118 1 -128 2 -172 27 -82 49 -130 154 -141
310 -4 59 -2 67 14 71 26 7 25 47 -1 54 -27 7 -25 31 3 35 16 2 23 11 25 31 3
23 0 27 -22 27 -22 0 -26 5 -32 48 -14 98 -48 162 -86 162 -24 0 -35 -28 -20
-49 20 -27 33 -64 41 -113 8 -46 7 -48 -17 -48 -22 0 -152 93 -152 109 0 3 26
6 57 6 55 0 58 1 58 25 0 24 -3 25 -95 34 l-95 8 -35 46 c-145 189 -203 406
-155 582 21 75 45 226 45 277 0 113 -47 204 -111 218 -31 7 -59 51 -59 92 0
54 -25 100 -96 174 -86 90 -124 161 -124 232 0 110 31 111 194 4 144 -93 268
-155 327 -163 l48 -6 -62 -62 c-76 -75 -117 -148 -124 -221 -5 -46 -3 -56 12
-61 22 -9 45 19 45 56 0 44 48 125 108 182 70 66 134 105 207 124 121 32 172
66 146 98 -10 11 -24 9 -85 -15 -90 -35 -229 -53 -294 -38 -25 5 -81 28 -124
51 -77 40 -99 60 -42 37 46 -17 143 -15 207 5 43 14 80 38 150 98 145 126 254
169 472 187 149 12 434 12 584 0z m-138 -2683 c29 -9 79 -16 111 -16 38 0 57
-4 53 -10 -9 -15 -107 -70 -125 -70 -8 0 -25 18 -38 40 -23 41 -42 49 -60 27
-7 -8 -6 -19 3 -37 27 -48 22 -50 -90 -50 -58 0 -105 2 -105 5 0 2 8 20 17 40
15 31 15 37 3 45 -26 17 -38 11 -61 -30 -13 -22 -30 -40 -38 -40 -18 0 -117
55 -126 70 -4 6 15 10 53 10 92 0 157 24 211 78 l46 47 46 -47 c33 -33 62 -51
100 -62z"/>
<path d="M2123 3473 c-19 -7 -16 -30 16 -111 32 -82 43 -97 65 -89 23 9 20 37
-11 114 -35 91 -41 98 -70 86z"/>
<path d="M3173 3468 c-18 -23 -65 -157 -61 -175 2 -10 12 -18 23 -18 16 0 27
18 52 80 18 44 31 89 30 100 -2 23 -30 31 -44 13z"/>
<path d="M2316 3448 c-3 -13 -7 -51 -9 -86 -4 -52 -2 -64 12 -71 33 -18 42 2
44 90 2 80 1 84 -20 87 -17 2 -24 -3 -27 -20z"/>
<path d="M2958 3454 c-6 -32 7 -153 18 -164 6 -6 18 -8 27 -4 14 5 17 19 16
68 -1 33 -4 72 -8 86 -8 30 -48 40 -53 14z"/>
<path d="M1903 3403 c-25 -9 -12 -36 59 -124 54 -66 78 -89 93 -87 11 2 21 10
23 19 3 16 -142 200 -156 198 -4 0 -13 -3 -19 -6z"/>
<path d="M3395 3402 c-6 -4 -41 -44 -78 -89 -69 -84 -80 -115 -42 -121 30 -4
173 173 159 196 -13 19 -26 24 -39 14z"/>
<path d="M2062 3089 c5 -37 90 -77 218 -103 120 -25 154 -45 168 -100 6 -24
14 -31 33 -31 21 0 24 4 23 36 -2 77 -71 129 -199 149 -38 6 -97 23 -130 37
-33 14 -73 27 -88 30 -26 5 -28 3 -25 -18z"/>
<path d="M3187 3084 c-27 -14 -91 -34 -143 -45 -136 -27 -182 -57 -201 -129
-12 -43 -7 -60 17 -60 13 0 26 15 39 44 23 53 57 73 144 87 80 12 198 54 226
80 50 46 -7 62 -82 23z"/>
<path d="M1863 3063 c-27 -10 -12 -43 32 -69 l45 -26 -6 -54 c-4 -33 -2 -71 6
-99 17 -59 86 -137 142 -160 86 -34 212 -13 262 44 33 36 39 26 32 -53 -6 -64
-4 -74 10 -80 29 -11 44 16 50 95 9 108 -12 175 -71 227 -47 42 -80 53 -250
86 -46 9 -112 32 -155 53 -89 45 -82 43 -97 36z m177 -132 c21 -6 24 -12 22
-38 -9 -87 88 -150 168 -110 13 7 34 29 46 50 l21 37 26 -20 c34 -27 34 -44 1
-87 -64 -84 -187 -94 -271 -20 -45 39 -63 82 -63 147 0 52 2 54 50 41z m158
-31 c30 0 39 -26 17 -50 -25 -28 -61 -25 -81 5 -21 32 -11 59 19 51 12 -3 32
-6 45 -6z"/>
<path d="M3370 3029 c-56 -29 -107 -45 -203 -64 -145 -28 -157 -33 -210 -84
-44 -42 -68 -109 -66 -190 2 -77 11 -112 32 -125 28 -17 37 10 30 88 l-6 68
49 -35 c87 -63 179 -70 277 -21 85 44 136 148 124 254 l-6 49 45 26 c45 27 58
57 28 69 -9 3 -16 6 -17 5 -1 0 -36 -18 -77 -40z m-32 -143 c2 -37 -3 -57 -23
-92 -66 -113 -207 -134 -297 -44 -45 45 -48 72 -9 99 l29 21 12 -30 c16 -38
54 -62 100 -64 65 -1 110 45 110 114 0 22 6 31 28 38 40 15 47 10 50 -42z
m-135 12 c7 -22 -15 -58 -39 -64 -32 -8 -64 12 -64 41 0 20 6 24 38 28 20 2
42 4 49 5 6 1 13 -4 16 -10z"/>
<path d="M1823 2643 c-27 -10 -11 -41 38 -73 55 -36 107 -99 116 -142 11 -54
63 -64 63 -13 0 61 -64 149 -147 204 -48 32 -50 33 -70 24z"/>
<path d="M3434 2616 c-60 -41 -100 -86 -125 -141 -23 -49 -24 -84 -4 -91 21
-9 42 11 49 46 6 34 82 119 132 151 36 22 45 53 18 63 -9 3 -16 6 -17 6 -1 0
-25 -15 -53 -34z"/>
<path d="M2494 2546 c-8 -21 23 -123 53 -175 28 -48 100 -131 114 -131 21 0
88 74 117 127 35 66 63 165 52 183 -18 29 -43 5 -60 -56 -16 -59 -65 -149 -94
-174 -26 -21 -95 87 -120 188 -9 36 -17 48 -34 50 -13 2 -25 -3 -28 -12z"/>
<path d="M2202 2408 c-68 -99 -96 -182 -82 -244 12 -52 51 -105 75 -102 27 4
30 33 7 63 -46 59 -37 115 40 232 23 36 38 69 34 78 -11 29 -44 16 -74 -27z"/>
<path d="M3054 2436 c-3 -8 8 -35 26 -60 42 -62 80 -145 80 -177 0 -14 -11
-43 -25 -63 -36 -54 -31 -96 9 -80 22 8 62 80 70 125 9 50 -15 120 -69 200
-45 69 -78 88 -91 55z"/>
<path d="M2269 2053 c-20 -53 13 -143 67 -178 56 -36 73 10 22 62 -26 27 -31
40 -32 85 -1 47 -4 53 -24 56 -16 3 -25 -4 -33 -25z"/>
<path d="M3004 2066 c-4 -9 -4 -26 -1 -38 8 -28 -16 -83 -42 -100 -12 -7 -21
-23 -21 -35 0 -18 6 -23 26 -23 56 0 113 108 95 178 -8 31 -47 43 -57 18z"/>
<path d="M2499 2034 c-18 -22 -3 -42 56 -79 67 -42 149 -42 217 -2 59 34 77
63 54 85 -14 14 -19 13 -54 -12 -77 -53 -141 -54 -212 -1 -40 29 -43 30 -61 9z"/>
<path d="M2146 1874 c-9 -8 -16 -22 -16 -29 0 -13 26 -45 36 -45 20 0 44 25
44 45 0 14 -8 29 -19 35 -25 13 -27 13 -45 -6z"/>
<path d="M3135 1877 c-21 -16 -17 -56 7 -71 14 -8 22 -6 39 11 24 24 21 46 -9
62 -14 7 -24 7 -37 -2z"/>
<path d="M2313 1784 c-7 -3 -13 -16 -13 -29 0 -44 50 -60 74 -22 20 32 -22 67
-61 51z"/>
<path d="M2960 1775 c-26 -32 13 -81 48 -59 34 22 22 74 -18 74 -10 0 -23 -7
-30 -15z"/>
<path d="M2160 1726 c-19 -23 -8 -61 18 -64 44 -7 67 32 36 62 -19 20 -38 20
-54 2z"/>
<path d="M3116 1724 c-20 -19 -20 -38 -2 -54 23 -19 61 -8 64 18 7 44 -32 67
-62 36z"/>
<path d="M2438 1709 c-44 -25 -3 -93 42 -69 26 14 26 56 1 70 -23 12 -22 12
-43 -1z"/>
<path d="M2848 1709 c-44 -25 -3 -93 42 -69 26 14 26 56 1 70 -23 12 -22 12
-43 -1z"/>
<path d="M2270 1625 c-26 -32 13 -81 48 -59 34 22 22 74 -18 74 -10 0 -23 -7
-30 -15z"/>
<path d="M3000 1625 c-26 -32 13 -81 48 -59 34 22 22 74 -18 74 -10 0 -23 -7
-30 -15z"/>
</g>
</svg>
